<svg width="512" height="512" viewBox="0 0 512 512" fill="none" xmlns="http://www.w3.org/2000/svg">
<path d="M189 131H355V236" stroke="#2E2F2A" stroke-width="15" stroke-linecap="round"/>
<path fill-rule="evenodd" clip-rule="evenodd" d="M113.312 284C109.355 284 106.063 287.084 106.013 291.041C106.004 291.693 106 292.346 106 293C106 375.843 173.157 443 256 443C338.843 443 406 375.843 406 293C406 292.346 405.996 291.693 405.987 291.041C405.937 287.084 402.645 284 398.688 284C394.367 284 390.964 287.656 390.996 291.977C390.999 292.318 391 292.659 391 293C391 367.558 330.558 428 256 428C181.442 428 121 367.558 121 293C121 292.659 121.001 292.318 121.004 291.977C121.036 287.656 117.633 284 113.312 284Z" fill="#2E2F2A"/>
<path d="M275.001 162C255.335 168.707 219.201 197.235 232.001 257.689C244.801 318.143 213.334 353.527 196 363.663" stroke="#2E2F2A" stroke-width="15" stroke-linecap="round"/>
<path d="M317.001 171.837C297.335 178.544 261.201 207.072 274.001 267.526C286.801 327.981 255.334 363.365 238 373.5" stroke="#FF7129" stroke-width="15" stroke-linecap="round"/>
<circle cx="288" cy="84" r="16" fill="#FF7129"/>
</svg>
